<?xml version="1.0" encoding="UTF-8" standalone="no"?>
<!-- Generator: Adobe Illustrator 15.0.0, SVG Export Plug-In . SVG Version: 6.00 Build 0)  -->

<svg
   xmlns:osb="http://www.openswatchbook.org/uri/2009/osb"
   xmlns:dc="http://purl.org/dc/elements/1.1/"
   xmlns:cc="http://creativecommons.org/ns#"
   xmlns:rdf="http://www.w3.org/1999/02/22-rdf-syntax-ns#"
   xmlns:svg="http://www.w3.org/2000/svg"
   xmlns="http://www.w3.org/2000/svg"
   xmlns:sodipodi="http://sodipodi.sourceforge.net/DTD/sodipodi-0.dtd"
   xmlns:inkscape="http://www.inkscape.org/namespaces/inkscape"
   version="1.0"
   id="Layer_1"
   x="0px"
   y="0px"
   width="8.672px"
   height="18.944px"
   viewBox="0 0 8.672 18.944"
   enable-background="new 0 0 8.672 18.944"
   xml:space="preserve"
   inkscape:version="0.91 r13725"
   sodipodi:docname="icon-facebook.svg"><metadata
     id="metadata3343"><rdf:RDF><cc:Work
         rdf:about=""><dc:format>image/svg+xml</dc:format><dc:type
           rdf:resource="http://purl.org/dc/dcmitype/StillImage" /><dc:title></dc:title></cc:Work></rdf:RDF></metadata><defs
     id="defs3341"><linearGradient
       id="linearGradient5591"
       osb:paint="solid"><stop
         style="stop-color:#000000;stop-opacity:1;"
         offset="0"
         id="stop5593" /></linearGradient></defs><sodipodi:namedview
     pagecolor="#ffffff"
     bordercolor="#666666"
     borderopacity="1"
     objecttolerance="10"
     gridtolerance="10"
     guidetolerance="10"
     inkscape:pageopacity="0"
     inkscape:pageshadow="2"
     inkscape:window-width="1366"
     inkscape:window-height="706"
     id="namedview3339"
     showgrid="false"
     inkscape:zoom="28.346706"
     inkscape:cx="-0.92034275"
     inkscape:cy="12.294198"
     inkscape:window-x="-8"
     inkscape:window-y="-8"
     inkscape:window-maximized="1"
     inkscape:current-layer="Layer_1" /><path
     d="M6.275,3.356c0.799,0,1.599,0,2.398,0c0-1.119,0-2.237,0-3.356c-0.959,0-1.92,0-2.878,0C2.656,0.181,1.54,2.387,1.948,6.114  H0v3.518h1.959c0,3.104,0,6.208,0,9.312c1.279,0,2.559,0,3.837,0c0-3.104,0-6.208,0-9.312h2.857V6.114H5.787  C5.765,5.069,5.75,3.709,6.275,3.356z"
     id="path3337"
     style="fill:#88b6d1;fill-opacity:1" /><path
     style="fill:#ffffff;stroke:none"
     d="m -7.4043414,12.096644 0,-4.656626 -0.9877694,0 -0.987769,0 0,-1.7462347 0,-1.7462346 0.97297,0 0.9729691,0 -0.029297,-0.4850652 c -0.03866,-0.6400776 -0.028004,-1.5487775 0.022944,-1.9565956 0.1407704,-1.12681682 0.5048202,-1.97431222 1.1118309,-2.5883041 0.5261824,-0.532234 1.1897279,-0.8560647 2.0584275,-1.0045764 0.3551859,-0.060722 0.5775094,-0.068461 1.9667939,-0.068461 l 1.56634182,0 0,1.65804101 0,1.65804099 -1.20111842,0 -1.2011184,0 -0.083539,0.09014 c -0.1131127,0.1220508 -0.2212177,0.3604475 -0.2835054,0.625195 -0.066973,0.2846627 -0.1313549,1.2107156 -0.1170439,1.6835328 l 0.011211,0.3704134 1.4375568,0.00922 1.43755682,0.00921 0,1.7458392 0,1.7458389 -1.42873742,0 -1.4287375,0 0,4.656626 0,4.656625 -1.9049832,0 -1.9049833,0 0,-4.656625 z"
     id="path3345"
     inkscape:connector-curvature="0" /><path
     style="fill:#ffffff;fill-opacity:1;stroke:none;stroke-opacity:1;opacity:0"
     d="m 1.9794651,14.283847 0,-4.656626 -0.98776909,0 -0.9877691,0 0,-1.7462347 0,-1.7462346 0.98844121,0 0.98844118,0 -0.025483,-0.097013 C 1.9413102,5.9843815 1.9296214,5.4565423 1.9293509,4.8647628 1.9289071,3.8936457 1.9366461,3.7475494 2.0087707,3.3654704 2.3438287,1.5905071 3.2141023,0.59659574 4.7938757,0.18469183 5.0918874,0.10698943 5.2499919,0.09141946 6.0010964,0.06580599 6.4764603,0.04959557 7.2662346,0.03530137 7.7561505,0.03404111 l 0.890756,-0.0022914 0,1.65804098 0,1.658041 -1.2109234,0 c -1.2107061,0 -1.2109361,1.42e-5 -1.2836461,0.079374 C 5.8797762,3.7246942 5.7541542,4.3971882 5.7541542,5.5588004 l 0,0.5759513 1.4463762,0 1.4463761,0 0,1.7462346 0,1.7462347 -1.4287374,0 -1.4287375,0 0,4.656626 0,4.656625 -1.9049832,0 -1.9049833,0 0,-4.656625 z"
     id="path3347"
     inkscape:connector-curvature="0" /></svg>